<?xml version="1.0" encoding="UTF-8" standalone="no"?>
<svg
   viewBox="0 0 1024 1024"
   version="1.1"
   id="svg7"
   sodipodi:docname="building.svg"
   inkscape:version="1.3.2 (091e20e, 2023-11-25)"
   xmlns:inkscape="http://www.inkscape.org/namespaces/inkscape"
   xmlns:sodipodi="http://sodipodi.sourceforge.net/DTD/sodipodi-0.dtd"
   xmlns="http://www.w3.org/2000/svg"
   xmlns:svg="http://www.w3.org/2000/svg">
  <defs
     id="defs7" />
  <sodipodi:namedview
     id="namedview7"
     pagecolor="#ffffff"
     bordercolor="#000000"
     borderopacity="0.25"
     inkscape:showpageshadow="2"
     inkscape:pageopacity="0.0"
     inkscape:pagecheckerboard="0"
     inkscape:deskcolor="#d1d1d1"
     inkscape:zoom="0.60881947"
     inkscape:cx="487.82934"
     inkscape:cy="454.97888"
     inkscape:window-width="1440"
     inkscape:window-height="847"
     inkscape:window-x="0"
     inkscape:window-y="205"
     inkscape:window-maximized="1"
     inkscape:current-layer="svg7" />
  <path
     d="M64 96h896v928H64z"
     fill="#EAEAEA"
     id="path1" />
  <path
     d="M416 768h192v256H416z"
     fill="#434854"
     id="path2" />
  <path
     d="M416 576h192v128H416zm-256 0h192v128H160zm0 192h192v128H160zm512-192h192v128H672zm0 192h192v128H672zM416 384h192v128H416zm-256 0h192v128H160zm512 0h192v128H672zM416 192h192v128H416zm-256 0h192v128H160zm512 0h192v128H672z"
     fill="#469FCC"
     id="path3" />
  <path
     d="m 160,294 h 192 v 26 H 160 Z m 256,0 h 192 v 26 H 416 Z m 256,0 h 192 v 26 H 672 Z M 160,486 h 192 v 26 H 160 Z m 256,0 h 192 v 26 H 416 Z m 256,0 h 192 v 26 H 672 Z M 160,678 h 192 v 26 H 160 Z m 256,0 h 192 v 26 H 416 Z m 256,0 h 192 v 26 H 672 Z M 160,870 h 192 v 26 H 160 Z m 512,0 h 192 v 26 H 672 Z"
     id="path4"
     sodipodi:nodetypes="ccccccccccccccccccccccccccccccccccccccccccccccccccccccc"
     style="fill:#01511a;fill-opacity:1" />
  <path
     d="M1024 64a32 32 0 0 1-32 32H32A32 32 0 0 1 0 64V32A32 32 0 0 1 32 0h960a32 32 0 0 1 32 32v32z"
     fill="#EF4D4D"
     id="path5" />
  <path
     d="M238.2 1024a126.7 126.7 0 0 0 17.8-64 128 128 0 0 0-256 0c0 23.4 6.8 45 17.8 64h220.4zM896 832a127.7 127.7 0 0 0-116.2 75 94.8 94.8 0 0 0-43.8-11 96 96 0 0 0-96 96c0 11.3 2.3 22 5.9 32h360.4a127 127 0 0 0 17.7-64 128 128 0 0 0-128-128z"
     fill="#3AAD73"
     id="path6" />
</svg>
