<?xml version="1.0" encoding="UTF-8" standalone="no"?>
<svg
   viewBox="0 -199.5 1423 1423"
   class="icon"
   version="1.1"
   id="svg3"
   sodipodi:docname="field.svg"
   inkscape:version="1.3.2 (091e20e, 2023-11-25)"
   xmlns:inkscape="http://www.inkscape.org/namespaces/inkscape"
   xmlns:sodipodi="http://sodipodi.sourceforge.net/DTD/sodipodi-0.dtd"
   xmlns="http://www.w3.org/2000/svg"
   xmlns:svg="http://www.w3.org/2000/svg">
  <defs
     id="defs3" />
  <sodipodi:namedview
     id="namedview3"
     pagecolor="#ffffff"
     bordercolor="#000000"
     borderopacity="0.25"
     inkscape:showpageshadow="2"
     inkscape:pageopacity="0.0"
     inkscape:pagecheckerboard="0"
     inkscape:deskcolor="#d1d1d1"
     inkscape:zoom="0.1658468"
     inkscape:cx="711.5"
     inkscape:cy="711.5"
     inkscape:window-width="1440"
     inkscape:window-height="847"
     inkscape:window-x="0"
     inkscape:window-y="205"
     inkscape:window-maximized="1"
     inkscape:current-layer="svg3" />
  <path
     d="M 240.19493,34.305234 H 1240.9709 a 154.01594,154.01594 0 0 1 154.016,154.015946 V 771.09083 A 211.67409,211.67409 0 0 1 1183.3128,982.76492 H 165.96922 A 130.34798,130.34798 0 0 1 35.621239,852.41705 V 238.87892 A 204.57369,204.57369 0 0 1 240.19493,34.305234 Z"
     fill="#c0d36f"
     id="path1"
     style="stroke-width:1.19022" />
  <path
     d="M 1182.9782,306.29047 H 1370.16 V 727.2394 h -187.1818 z m -1119.460489,0 H 250.69949 V 727.2394 H 63.517711 Z"
     fill="#ffffff"
     id="path2"
     style="stroke-width:1.19022" />
  <path
     d="M 1244.0724,13.383475 H 187.376 C 93.769636,13.541775 17.927368,89.382852 17.769068,182.97612 v 664.77347 c 0.1583,93.60755 75.999377,169.44861 169.592652,169.60691 H 1244.0736 c 93.6064,-0.1583 169.4487,-75.99936 169.607,-169.59263 V 183.27011 c 0,-93.726577 -75.9018,-169.727145 -169.5927,-169.884255 z M 686.15487,652.19934 C 621.96609,638.82241 574.4321,582.71763 574.4321,515.50925 c 0,-67.20839 47.53517,-123.31316 110.81701,-136.53179 l 0.90576,273.22069 z m 55.79176,-273.38018 c 64.18878,13.37693 111.72275,69.4817 111.72275,136.69009 0,67.20838 -47.53516,123.31316 -110.817,136.53179 L 741.94663,378.82035 Z M 72.444391,320.23752 H 192.95458 c 27.88576,0 50.49049,22.60473 50.49049,50.4905 v 289.8386 c 0,27.88576 -22.60473,50.49049 -50.49049,50.49049 H 72.444391 V 320.51484 Z m 0,527.79058 V 766.57155 H 192.95458 c 58.69828,0 106.28344,-47.58517 106.28344,-106.28345 V 371.56593 c 0,-58.69828 -47.58516,-106.28344 -106.28344,-106.28344 H 72.444391 V 183.82594 C 72.602691,121.03091 123.46573,70.169065 186.24529,70.010766 h 499.9072 V 323.30591 c -94.44071,14.80401 -165.83273,95.58452 -165.83273,193.04006 0,97.45436 71.39202,178.23606 164.73058,192.89724 L 686.15368,962.68 H 187.37481 c -0.24876,0.002 -0.54393,0.004 -0.83911,0.004 -63.01284,0 -114.093689,-51.08204 -114.093689,-114.09369 0,-0.19639 0.0012,-0.39397 0.0024,-0.59155 z M 1244.0724,961.84328 H 741.94663 V 708.54812 c 94.4407,-14.80401 165.83272,-95.58451 165.83272,-193.04007 0,-97.45435 -71.39202,-178.23605 -164.73058,-192.89723 L 741.94543,69.174038 h 502.12577 c 62.7951,0.1583 113.657,51.020142 113.8153,113.800892 v 81.47084 h -113.8153 c -58.6983,0 -106.2835,47.58515 -106.2835,106.28343 v 289.8386 c 0,58.69829 47.5841,106.28345 106.2835,106.28345 h 111.5835 v 81.45655 c -0.2963,61.90593 -49.8501,112.13935 -111.462,113.53548 z m 113.8153,-641.60576 v 390.54227 h -113.8153 c -27.8857,0 -50.4905,-22.60474 -50.4905,-50.4905 V 371.56712 c 0,-27.88576 22.6048,-50.49049 50.4905,-50.49049 h 111.5835 z"
     fill="#25274b"
     id="path3"
     style="stroke-width:1.19022" />
</svg>
