<svg xmlns="http://www.w3.org/2000/svg" viewBox="0 0 512 512">
  <circle cx="256" cy="256" r="256" fill="#fddf6d"/>
  <path d="M310.86 474.2c-141.39 0-256-114.6-256-256 0-75.53 32.72-143.41 84.76-190.27C56.74 70.3 0 156.53 0 256c0 141.38 114.61 256 256 256a255.04 255.04 0 0 0 171.24-65.72 254.92 254.92 0 0 1-116.38 27.93z" fill="#fcc56b"/>
  <g fill="#7f184c">
    <path d="M245.9 187.17a10.41 10.41 0 0 1-10.42-10.41c0-13.43-10.92-24.36-24.36-24.36s-24.36 10.93-24.36 24.36a10.41 10.41 0 1 1-20.83 0c0-24.92 20.28-45.2 45.2-45.2s45.18 20.28 45.18 45.2c0 5.75-4.66 10.41-10.41 10.41zM421.8 187.17a10.41 10.41 0 0 1-10.42-10.41c0-13.43-10.93-24.36-24.36-24.36s-24.36 10.93-24.36 24.36a10.41 10.41 0 1 1-20.83 0 45.24 45.24 0 0 1 45.2-45.2 45.24 45.24 0 0 1 45.18 45.2c0 5.75-4.66 10.41-10.41 10.41zM302.13 403.38a76.2 76.2 0 0 1-66.5-39.11 10.41 10.41 0 0 1 18.19-10.14 55.35 55.35 0 0 0 48.31 28.42c19.53 0 38.25-11 48.87-28.7a10.42 10.42 0 0 1 17.86 10.7c-14.35 23.95-39.92 38.83-66.73 38.83z"/>
  </g>
  <ellipse transform="rotate(-74.2 302.33 81.82)" cx="302.33" cy="81.82" rx="29.85" ry="53.46" fill="#fceb88"/>
  <g fill="#f9a880">
    <path d="M145.99 240.15a34.42 34.42 0 0 0-34.43 34.42h68.85A34.43 34.43 0 0 0 146 240.15zM446.25 235.54a34.43 34.43 0 0 0-34.42 34.42h68.84a34.42 34.42 0 0 0-34.42-34.42z"/>
  </g>
</svg>
