<svg viewBox="0 0 24 24" xmlns="http://www.w3.org/2000/svg">
	<path fill-rule="evenodd" clip-rule="evenodd" fill="#333"
		d="M5 4a1 1 0 0 0-1 1v14c0 .6.4 1 1 1h8c.6 0 1-.4 1-1V5c0-.6-.4-1-1-1H5Zm0 18h14a3 3 0 0 0 3-3V9a3 3 0 0 0-3-3h-3V5a3 3 0 0 0-3-3H5a3 3 0 0 0-3 3v14a3 3 0 0 0 3 3Zm14-2h-3.2l.2-1V8h3c.6 0 1 .4 1 1v10c0 .6-.4 1-1 1ZM7 14H5v2h2v-2Zm1 0h2v2H8v-2Zm5 0h-2v2h2v-2Zm4 0h2v2h-2v-2Zm2-4h-2v2h2v-2ZM5 10h2v2H5v-2Zm5 0H8v2h2v-2Zm1 0h2v2h-2v-2ZM7 6H5v2h2V6Zm1 0h2v2H8V6Zm5 0h-2v2h2V6Z" />
</svg>