<svg viewBox="0 0 800 800" xmlns="http://www.w3.org/2000/svg">
  <path d="M439 31s143-11 238 82c97 95 92 247 92 247M440 155s92-5 149 53c58 58 61 151 61 151" fill="none" stroke="#333" stroke-width="58.3" stroke-linecap="round"/>
  <path d="m674 760 56-58c49-55 36-141-28-179l-74-43c-42-25-96-17-130 19l-16 16c1 0 1 0 0 0h-11c-16-2-48-13-104-73-21-31-87-83-73-128l10-10c37-41 41-102 9-147l-49-69C217 29 155 24 98 73l-61 65c-23 23-36 55-35 88 4 72 35 218 195 387 172 181 336 191 407 184 27-3 51-17 70-37zM239 573A553 553 0 0 1 61 223c-1-16 5-32 19-45l60-64c20-22 57-20 76 8l49 69c17 24 14 54-4 73l-10 11c-16 16-17 41-14 62 5 34 27 80 89 146 61 64 101 84 136 90 17 3 31 0 42-4s17-11 18-12l18-19c15-15 39-19 59-7l74 42c31 18 38 65 14 89l-55 58a53 53 0 0 1-33 19c-56 6-203 0-360-166z" fill="#333"/>
</svg>
