<svg viewBox="0 0 1024 1024" class="icon" xmlns="http://www.w3.org/2000/svg">
  <path d="M960 704H64V192a64 64 0 0 1 64-64h768a64 64 0 0 1 64 64v512z" fill="#EAEAEA"/>
  <path d="M960 384a64 64 0 0 0-64 64v256H128V448a64 64 0 0 0-128 0v320a64 64 0 0 0 64 64h896a64 64 0 0 0 64-64V448a64 64 0 0 0-64-64z" fill="#469FCC"/>
  <path d="M96 832h128v64H96zm704 0h128v64H800z" fill="#434854"/>
  <path d="M96 832h128v32H96zm704 0h128v32H800z"/>
  <path d="M960 640a64 64 0 0 1-64 64H128a64 64 0 0 1 0-128h768a64 64 0 0 1 64 64z" fill="#E6E6E6"/>
  <path d="M896 704H128a63.9 63.9 0 0 1-61.8-48 64.2 64.2 0 0 0-2.2 16 64 64 0 0 0 64 64h768a64 64 0 0 0 64-64c0-5.6-1-10.9-2.2-16a63.9 63.9 0 0 1-61.8 48zM128 544h768v32H128zM256 320a32 32 0 1 0 64 0 32 32 0 1 0-64 0ZM368 432a32 32 0 1 0 64 0 32 32 0 1 0-64 0ZM480 320a32 32 0 1 0 64 0 32 32 0 1 0-64 0ZM592 432a32 32 0 1 0 64 0 32 32 0 1 0-64 0ZM704 320a32 32 0 1 0 64 0 32 32 0 1 0-64 0Z"/>
</svg>
