<svg xmlns="http://www.w3.org/2000/svg" viewBox="0 0 512 512">
  <path d="M256 0A191 191 0 0 0 64.1 189.7v269.4a8 8 0 0 0 8 8H440a8 8 0 0 0 8-8V189.7A191 191 0 0 0 256 0z" fill="#ccc"/>
  <path d="M80.2 451V189.8C80.2 94 159 16 256 16s175.8 78 175.8 173.7v261.4H80.2z" fill="#e5e5e5"/>
  <path d="M256 32A159 159 0 0 0 96.2 189.8a8 8 0 0 0 8 8h303.6a8 8 0 0 0 8-8A159 159 0 0 0 256 32.1z" fill="#62c9cc"/>
  <g fill="#fff">
    <path d="M400.4 122.3 326 197.7h81.8a8 8 0 0 0 8-8c0-24-5.5-47-15.4-67.4zM178.5 197.7H247L367.1 76.5c-12-11.4-25.7-21-40.8-28.3L178.5 197.7z"/>
  </g>
  <g fill="#62c9cc">
    <path d="M407.8 216H277.4a8 8 0 0 0-8 8v203a8 8 0 0 0 8 8h130.4a8 8 0 0 0 8-8V224a8 8 0 0 0-8-8z"/>
    <path d="M407.8 435a8 8 0 0 0 8-8v-44.3L363.4 435h44.4z"/>
  </g>
  <path fill="#fff" d="m269.4 424.4 146.4-146.5v-37.4L269.4 386.9z"/>
  <g fill="#62c9cc">
    <path d="M235.2 216H104.8a8 8 0 0 0-8 8v203a8 8 0 0 0 8 8h130.4a8 8 0 0 0 8-8V224a8 8 0 0 0-8-8z"/>
    <path d="M235.2 435a8 8 0 0 0 8-8v-44.3L190.8 435h44.4z"/>
  </g>
  <path fill="#fff" d="m96.7 424.4 146.5-146.5v-37.4L96.7 386.9z"/>
  <path d="M474 451H38a8 8 0 0 0-8 8v45a8 8 0 0 0 8 8h436a8 8 0 0 0 8-8v-45a8 8 0 0 0-8-8z" fill="#ef9d3c"/>
  <path d="M30 491.2V504a8 8 0 0 0 8 8h436a8 8 0 0 0 8-8v-12.8H30z" fill="#e2771e"/>
</svg>
