<svg viewBox="0 0 1759 413" xmlns="http://www.w3.org/2000/svg">
	<path fill="none" d="M-1-1h582v402H-1z" />
	<path
		d="M1073.8 188.8c-3.3 16.8-7 33.4-11 50a588.6 588.6 0 0 1-38.5 53c-7.2 7.3-15 13.8-23.5 19.5-25 12-41.5 4.9-49.5-21.5-1.6-8.6-3-17.3-4-26l-1-55c-.8-5.3-1.4-10.6-2-16-3.4-12.9-10.6-15.4-21.5-7.5a174.3 174.3 0 0 0-24.5 28.5 1146.7 1146.7 0 0 0-49 86c-1.6 5.7-2 11.3-1 17-21.4 9-31.4 2-30-21 2.8-27.7 5.4-55.3 8-83a272.3 272.3 0 0 1-82.5 87.5 53.2 53.2 0 0 1-44 7c-5.5-2.8-9.6-7-12.5-12.5-2.6-6.4-4.6-13.1-6-20l-1-42c-14.4 29.1-34.3 54-59.5 74.5a56.3 56.3 0 0 1-40 13c-9.9-3-17-9.2-21.5-18.5a108.8 108.8 0 0 1-6-52 224.2 224.2 0 0 1-96.5 66.5 92.7 92.7 0 0 1-52 1 54.6 54.6 0 0 1-33.5-40.5l-2.5-18a200 200 0 0 1-54 54.5 43.4 43.4 0 0 1-43 3 48.8 48.8 0 0 1-21-42.5c.4-11 1.6-22 3.5-33 10.2-49.2 20-98.6 29.5-148a53.4 53.4 0 0 1-35-7.5 34 34 0 0 1-8-25.5c7.5 3 15.1 5.6 23 7.5 20 3.7 39 .9 57-8.5l-36.5 193a81 81 0 0 0 0 30c5 9.7 12.8 12.9 23.5 9.5a72.5 72.5 0 0 0 28.5-20.5c20.5-27 39.5-55 57-84 21.5-26 49-37.2 82.5-33.5 20.1 3.1 30.8 14.8 32 35a54 54 0 0 1-23 41 135.4 135.4 0 0 1-81 26.5c-1 30 13.4 43.4 43 40.5 13-2.3 25.4-6.6 37-13a295 295 0 0 0 91.5-94.5c1.5-.7 3-.8 4.5-.5 31-38.4 68.5-46.2 112.5-23.5a32.9 32.9 0 0 1 30-12l9.5 1a153.8 153.8 0 0 0-16.5 53 302 302 0 0 0-2 55c.2 5 1.5 9.7 4 14 3.8 4.7 8.7 6.2 14.5 4.5a93.5 93.5 0 0 0 29-18c25.7-24.5 47.2-51 64.5-79.5-2-3.4-3.5-7.1-4.5-11a158 158 0 0 1 24-6c5.9-.6 10 1.7 12.5 7 1 3.8 1.6 7.6 1.5 11.5-1.7 23.6-3.5 47-5.5 70.5 11.4-24.5 25.1-47.5 41-69a104 104 0 0 1 27.5-26.5 36.8 36.8 0 0 1 40-1 58 58 0 0 1 14.5 32.5c1.3 22.7 2 45.3 2 68 2.3 35.3 15.3 39.6 39 13a775.4 775.4 0 0 0 54-83c.8-1 1.6-1 2.5 0z"
		fill="#4e88d2" />
	<path
		d="M1062.8 238.8c4-16.6 7.7-33.2 11-50a3136 3136 0 0 0 16-65.5 134 134 0 0 0-11.5-26.5c-3.3-5-7.7-9-13-12a5 5 0 0 1-.5-3c9.4-4 19-7.4 29-10 5.4.8 9.9 3 13.5 7 23 51.6 45.6 103.3 68 155 7 14.2 14.6 27.9 23 41 2.8 3.3 6 6 9.5 8 4.6-2.3 7.7-6 9.5-11 15-45.8 20.7-92.8 17-141a46.3 46.3 0 0 0-15.5-27c8.7-8.3 19-12.1 31-11.5a21.3 21.3 0 0 1 13.5 17.5c.7 13.4.4 26.7-1 40-4.6 39.5-12 78.5-22 117a166.3 166.3 0 0 1-21 48c-10.2 9.1-20.7 9.3-31.5.5-12.1-12.1-22-26-29.5-41.5a2270.5 2270.5 0 0 1-53-116c-8.4 38.8-16 77.8-23 117-.8 8.8-.5 17.4 1 26a91.4 91.4 0 0 0 9 16 62.5 62.5 0 0 1-32.5 4.5 15.4 15.4 0 0 1-7.5-6.5 55.6 55.6 0 0 1-1-20c3.3-18.8 7.2-37.5 11.5-56z"
		fill="#e94da1" />
	<path
		d="M135.8 92.8c18.8-1.7 36.8 1.1 54 8.5 10.5 5 15 13.2 13.5 24.5-2.5 7.7-7 14-13.5 19-15.4-31-39.8-41.5-73-31.5-18.3 9-32.8 22.2-43.5 39.5a143.2 143.2 0 0 0-18 105c13.3 33.7 37.8 46.6 73.5 38.5a109.4 109.4 0 0 0 45-22c7.2-6.3 14.2-12.8 21-19.5 3.7 4.3 4.9 9.3 3.5 15-2 8.2-6.1 15-12.5 20.5a138.6 138.6 0 0 1-114 29 74 74 0 0 1-54.5-60.5c-6.5-60.2 14.4-108.3 62.5-144.5a134 134 0 0 1 56-21.5z"
		fill="#4f88d2" />
	<path
		d="M1623.8 253.8a49 49 0 0 0 .5-17l-1.5 3a307 307 0 0 1-30.5 54 60.8 60.8 0 0 1-50.5 26c5.2-37.7 3-75-6.5-112-.4-.4-.9-.8-1.5-1a87 87 0 0 1-70 3 114 114 0 0 1-53 98.5 90.8 90.8 0 0 1-69 9c-28.7-12.2-43.3-34-44-65.5a88 88 0 0 1 42-74.5 85.1 85.1 0 0 1 48-11 21.6 21.6 0 0 1 2-21.5c16-.3 30.3 4.6 43 14.5a141 141 0 0 1 19 21 76.2 76.2 0 0 0 78 8.5c-4.1-13-10.3-25-18.5-36-.6-1-.6-2 0-3a41 41 0 0 1 28.5-4.5 24 24 0 0 1 11.5 11.5c10 21 16.4 43 19 66a1710 1710 0 0 1 6.5 58c20.5-26.5 36-55.9 46.5-88a232 232 0 0 0 3.5-23c8.4-3.6 17-4.8 26-3.5 4.6 1.3 7 4.3 7 9a779.5 779.5 0 0 0-8.5 62.5c-1 14.1-.4 28.1 2 42 2.7 14.3 10.9 19.1 24.5 14.5a60.4 60.4 0 0 0 19.5-25.5 179 179 0 0 0 13-82 29 29 0 0 0-12.5-21 30.1 30.1 0 0 1 35-8.5c3.7 3.5 6.2 7.7 7.5 12.5 1.6 16.6.3 33-4 49-7.7 28-19.7 54-36 78a60.7 60.7 0 0 1-35.5 24.5c-20.4 2.6-33-6.2-37.5-26.5-3-13.4-4.2-27.1-3.5-41z"
		fill="#e94da1" />
	<path
		d="M455.8 168.8c18-.4 24.9 8.2 20.5 26-3 10.5-8.8 19-17.5 25.5-16 11.7-34 18.2-54 19.5a98.4 98.4 0 0 1 34-63.5c5.3-3.6 11-6.1 17-7.5z"
		fill="#fff" />
	<path
		d="M628.8 172.8a86 86 0 0 1 58 19.5 820.2 820.2 0 0 1-57.5 79.5 67.7 67.7 0 0 1-26.5 19c-10.8-1.6-16.6-8-17.5-19-3.3-30 3.7-57.4 21-82l10.5-10.5c4-2.4 8-4.6 12-6.5z"
		fill="#fff" />
	<path
		d="M1386.8 182.8c6.5-.4 12.9.4 19 2.5 6.7 4.7 13.9 8.6 21.5 11.5 6.9 29.6 1.9 56.9-15 82a48.6 48.6 0 0 1-54.5 21.5 47 47 0 0 1-27-46 77.2 77.2 0 0 1 44-68l12-3.5z"
		fill="#fff" />
	<path d="M1623.8 253.8c.4-4.8 0-9.5-1-14l1.5-3a49 49 0 0 1-.5 17z" fill="#f5bed8" />
</svg>