<svg viewBox="0 0 185.21 52.92" xmlns="http://www.w3.org/2000/svg">
  <g fill="none" stroke="#00337c">
    <path d="M34.44 40.43H16.27a3.3 3.3 0 0 1-3.3-3.32V21.6c0-.52.24-1 .65-1.32l10.71-7.06a1.64 1.64 0 0 1 1.99 0l10.76 7.06c.41.31.66.8.66 1.32v15.5a3.3 3.3 0 0 1-3.3 3.32Z" fill="#abe4fb" fill-opacity=".58" stroke-width="1.38"/>
    <path d="M29.48 21.16h-8.26" stroke-miterlimit="10" stroke-linecap="round" stroke-width="1.38"/>
    <path d="m10.21 22.53 14.12-9.3a1.65 1.65 0 0 1 1.99 0l14.17 9.3" stroke-linecap="round" stroke-linejoin="round" stroke-width="1.38"/>
    <path d="M37.74 21.16v15.96a3.3 3.3 0 0 1-3.3 3.3H16.27a3.3 3.3 0 0 1-3.3-3.3V21.16" stroke-width=".8" stroke-linecap="round"/>
    <path d="M22.32 26.66h6.06c.6 0 1.1.5 1.1 1.1v12.67h-8.26V27.76c0-.6.5-1.1 1.1-1.1Z" fill="#fff" stroke-width="1.38"/>
    <path d="M33.61 14.28v2.75" stroke-linecap="round" stroke-width="1.38"/>
  </g>
  <g stroke="#fff" stroke-width=".1">
    <path d="m36.11 35.97-1.57-1.58 10.9-10.9a1.11 1.11 0 0 1 1.57 0 1.11 1.11 0 0 1 0 1.58z" fill="#00337c" stroke="#00337c"/>
    <path d="M33.36 44.66a.72.72 0 0 1-.27-.05 11.32 11.32 0 0 1-7.45-9.7.73.73 0 0 1 .88-.78 7.65 7.65 0 0 0 5.44-.73l1.26-.7a.73.73 0 0 1 .82.09l4.1 3.49a.73.73 0 0 1 .18.84c0 .03-.35.77-.6 1.32l-.26.56a19.81 19.81 0 0 1-3.58 5.44.73.73 0 0 1-.52.22z" fill="#ffd58c" stroke="#00337c"/>
    <path d="m38 37.85-5.04-5.04 1.59-.8a1.8 1.8 0 0 1 2.07.34l1.84 1.85a1.8 1.8 0 0 1 .34 2.07z" fill="#004cb8" stroke="#00337c"/>
    <path d="M28.86 41.8a15.14 15.14 0 0 0 3.48-3.65 14.4 14.4 0 0 1-5.37 1.1c.5.94 1.1 1.8 1.86 2.55z" fill="#da9462" stroke="none"/>
  </g>
  <path d="M64.36 23.43q-1.62 0-2.74-.68-1.12-.7-1.7-1.95-.57-1.27-.57-3.01V15.4q0-.39.25-.63.26-.25.63-.25.39 0 .63.25.25.24.25.63v2.39q0 1.28.3 2.22.33.91 1.06 1.4.74.5 2 .5 1.04 0 1.84-.26t1.24-.7q.45-.45.45-1.05h.83q0 1.04-.57 1.83-.56.8-1.58 1.26-1 .44-2.32.44zm4.52 4.31q-.37 0-.62-.25-.26-.25-.26-.63V15.4q0-.39.26-.63.25-.25.62-.25.4 0 .63.25.25.24.25.63v11.46q0 .38-.25.63-.24.25-.63.25zm8 .09q-1.17 0-2.1-.5-.92-.5-1.46-1.47-.53-.96-.53-2.37v-4.16q0-.37.24-.61.26-.26.63-.26t.6.26q.26.24.26.6v4.17q0 .95.36 1.58.35.6.96.91.61.3 1.37.3.73 0 1.3-.3.57-.28.9-.78.34-.49.34-1.1h1.07q0 1.05-.52 1.9-.51.85-1.41 1.34-.88.49-2.01.49zm3.74-.09q-.37 0-.63-.23-.24-.26-.24-.63v-7.55q0-.4.24-.63.26-.24.63-.24.39 0 .62.24.24.24.24.63v7.55q0 .37-.24.63-.23.23-.62.23zm8.1.07q-1.35 0-2.41-.6-1.05-.63-1.66-1.68-.6-1.07-.6-2.4 0-1.38.6-2.45.59-1.06 1.62-1.66 1.04-.6 2.37-.6 1 0 1.83.38.83.38 1.5 1.14.23.27.16.56-.07.28-.37.5-.24.17-.53.12-.28-.06-.52-.3-.83-.88-2.07-.88-.86 0-1.52.4t-1.03 1.1q-.38.72-.38 1.68 0 .92.38 1.63.39.7 1.06 1.13.68.4 1.58.4.6 0 1.03-.13.46-.15.83-.45.27-.22.56-.24.29-.04.5.15.3.24.33.54.03.29-.2.53-1.22 1.13-3.05 1.13zm18.14-.05q-.37 0-.62-.24-.24-.25-.24-.62v-4.85q0-1.06-.52-1.57-.53-.53-1.38-.53-.88 0-1.45.61-.56.61-.56 1.56h-1.4q0-1.1.47-1.93.47-.84 1.32-1.32.86-.47 1.96-.47.97 0 1.71.42.75.42 1.15 1.25.43.82.43 1.98v4.85q0 .37-.24.62-.24.24-.63.24zm-11.29 0q-.37 0-.63-.24-.23-.25-.23-.62v-7.54q0-.39.23-.62.26-.24.63-.24.39 0 .63.24.23.23.23.62v7.54q0 .37-.23.62-.24.24-.63.24zm5.66 0q-.38 0-.63-.24-.24-.25-.24-.62v-4.85q0-1.06-.52-1.57-.53-.53-1.37-.53-.89 0-1.46.61-.58.61-.58 1.56h-1.06q0-1.1.44-1.93.44-.84 1.22-1.32.77-.47 1.77-.47.97 0 1.71.42.75.42 1.16 1.25.42.82.42 1.98v4.85q0 .37-.24.62-.24.24-.62.24zm13.24.15q-1.14 0-2.02-.47-.88-.5-1.37-1.34-.49-.84-.49-1.93v-4.84q.03-.37.27-.61.24-.24.6-.24.38 0 .62.24t.24.63v1.9h2.32q1.06 0 1.88.36.83.38 1.28 1.09.48.7.48 1.74 0 1.1-.5 1.88-.47.78-1.33 1.19-.87.4-1.98.4zm0-1.6q.95 0 1.54-.46.6-.48.6-1.4 0-.9-.55-1.33-.56-.42-1.42-.42h-2.32v1.44q0 .95.59 1.56.6.6 1.56.6zm6.14 1.43q-.37 0-.62-.23-.24-.26-.24-.63v-7.53q0-.4.24-.63.25-.24.62-.24.4 0 .63.24.24.24.24.63v7.53q0 .37-.24.63-.24.23-.63.23zm7.81.09q-1.17 0-2.1-.5-.91-.5-1.46-1.47-.52-.96-.52-2.37v-4.16q0-.37.24-.61.25-.26.62-.26.38 0 .61.26.26.24.26.6v4.17q0 .95.35 1.58.36.6.97.91.6.3 1.37.3.73 0 1.29-.3.57-.28.91-.78.34-.49.34-1.1h1.07q0 1.05-.53 1.9-.5.85-1.4 1.34-.89.49-2.02.49zm3.74-.09q-.37 0-.62-.23-.24-.26-.24-.63v-7.55q0-.4.24-.63.25-.24.62-.24.4 0 .63.24.24.24.24.63v7.55q0 .37-.24.63-.24.23-.63.23zm-3.38-10.48q-.87 0-1.56-.29-.7-.3-1.1-.8-.4-.53-.4-1.18 0-.35.21-.59.22-.24.54-.24.34 0 .54.24.23.24.23.6 0 .42.44.72.44.29 1.1.29.66 0 1.1-.29.44-.3.44-.73 0-.35.22-.59t.54-.24q.34 0 .54.24.22.24.22.6 0 .64-.4 1.16-.41.51-1.1.81-.68.3-1.56.3zm13.93 9.94-1.5-.73 4.75-11.36q.26-.6.83-.6.61 0 .83.6l4.78 11.4-1.4.7-4.3-10.44h.23zm-1.9 3.56q-.37 0-.62-.26-.26-.25-.26-.62v-2.81q0-.4.26-.63.25-.25.63-.25h11.92q.39 0 .62.25.26.24.26.63v2.8q0 .38-.26.63-.23.26-.62.26-.38 0-.63-.26-.25-.25-.25-.62v-2.14H141.7v2.14q0 .37-.26.62-.24.26-.62.26zm18.95-2.95q-1.37 0-2.42-.6-1.05-.6-1.66-1.65-.59-1.07-.59-2.44 0-1.39.6-2.44.6-1.06 1.65-1.66 1.05-.6 2.42-.6 1.36 0 2.4.6 1.06.6 1.65 1.66.61 1.05.61 2.44 0 1.37-.6 2.44-.58 1.05-1.63 1.66-1.05.6-2.43.6zm0-1.52q.88 0 1.56-.4.68-.41 1.05-1.13.4-.7.4-1.64 0-.93-.4-1.64-.37-.73-1.05-1.14-.68-.4-1.56-.4t-1.55.4q-.68.41-1.07 1.14-.39.71-.39 1.64 0 .93.39 1.64.39.72 1.07 1.12.67.4 1.55.4zm8.1 1.45q-.37 0-.63-.23-.24-.26-.24-.63v-7.53q0-.4.24-.63.26-.24.63-.24.54 0 .91.53l3.5 5.06 3.51-5.06q.38-.53.92-.53.39 0 .62.24.24.24.24.63v7.53q0 .37-.24.63-.23.23-.62.23-.38 0-.63-.23-.24-.26-.24-.63v-6.16l.44.13-3.11 4.4q-.43.6-.92.6-.49-.02-.9-.6l-3.06-4.4.44-.13v6.16q0 .37-.24.63-.23.23-.62.23z" fill="#fff" stroke="#00337c" stroke-width=".1" paint-order="stroke fill markers"/>
  <path d="M65.1 40.38q-.14.14-.37.13-.24 0-.38-.16l-3.24-3.78 3.02-3.61q.14-.17.36-.17.23 0 .36.15.14.16.13.34 0 .16-.14.32l-2.5 2.9 2.76 3.2q.14.16.15.34.02.17-.15.34zm-5.15.13q-.22 0-.37-.15t-.15-.37v-6.68q0-.23.15-.37.15-.15.37-.15t.36.15q.15.14.15.37v2.83h1.62v.9h-1.62V40q0 .22-.15.37-.14.15-.36.15zm8.63-5.4q.15 0 .27.08.11.08.18.25l2.04 4.41q.09.2.02.36-.07.15-.24.23-.22.1-.37.05-.16-.05-.27-.25l-1.86-4.22h.5l-1.91 4.22q-.09.19-.27.25-.17.05-.37-.05-.2-.1-.27-.24-.07-.15.03-.35l2.04-4.41q.15-.33.48-.33zm6.04 5.45q-.68 0-1.22-.3-.53-.29-.85-.85-.3-.56-.3-1.38V35.6q0-.22.13-.36.15-.15.37-.15.21 0 .35.15.15.14.15.36v2.43q0 .55.2.92.22.35.57.53.36.17.8.17.43 0 .75-.17.34-.17.54-.46.2-.28.2-.64h.62q0 .61-.31 1.1-.3.5-.82.79-.51.29-1.18.29zm2.19-.05q-.22 0-.37-.14-.14-.15-.14-.37v-4.4q0-.23.14-.37.15-.14.37-.14t.36.14q.14.14.14.37V40q0 .22-.14.37-.14.14-.36.14zm6.82 0q-.21 0-.36-.14-.14-.15-.14-.37v-4.4q0-.22.14-.36.15-.14.36-.14.23 0 .36.14.13.14.13.37V40q0 .21-.13.36-.13.14-.36.14zm-4.06 0q-.21 0-.35-.14-.13-.15-.13-.37v-4.4q0-.22.13-.36.14-.14.35-.14.23 0 .37.14.14.14.14.37V40q0 .21-.14.36-.14.14-.37.14zm.38-2.36v-.9h3.47v.9zm8.22 2.4q-.69 0-1.23-.28-.53-.3-.85-.86-.3-.56-.3-1.38V35.6q0-.22.13-.36.15-.15.37-.15t.36.15q.14.14.14.36v2.43q0 .55.21.92.2.35.56.53.36.17.8.17.43 0 .75-.17.34-.17.54-.46.2-.28.2-.64h.62q0 .61-.3 1.1-.3.5-.83.79-.51.29-1.17.29zm2.18-.04q-.22 0-.37-.14-.13-.15-.13-.37v-4.4q0-.23.13-.37.15-.14.37-.14.23 0 .36.14.14.14.14.37V40q0 .22-.14.37-.13.14-.36.14zm6.82 0q-.21 0-.36-.14-.14-.15-.14-.37v-4.4q0-.22.14-.36.15-.14.36-.14.23 0 .36.14.13.14.13.37V40q0 .21-.13.36-.13.14-.36.14zm-4.05 0q-.22 0-.36-.14-.13-.15-.13-.37v-4.4q0-.22.13-.36.14-.14.36-.14.22 0 .36.14.14.14.14.37V40q0 .21-.14.36-.14.14-.36.14zm.37-2.36v-.9h3.47v.9zm7.62 2.4q-.63 0-1.12-.2-.48-.19-.77-.54-.28-.34-.28-.79 0-.44.25-.76.26-.31.73-.53.48-.22 1.16-.35.67-.13.9-.32.24-.2.24-.5 0-.32-.31-.47-.32-.16-.73-.16-.35 0-.7.11-.33.11-.56.32-.15.14-.33.19-.17.04-.28-.02-.19-.12-.24-.31-.04-.19.09-.35.3-.36.83-.58.54-.23 1.2-.23.55 0 1 .18.46.17.72.5.28.34.28.83 0 .58-.46.97-.47.39-1.42.6-.78.15-1.07.37-.3.2-.29.5.01.31.3.48.28.17.86.17.51 0 .87-.1.36-.11.57-.33.14-.15.31-.2.18-.05.37.11.17.14.17.32t-.15.33q-.33.33-.9.55-.6.2-1.24.2zm5.97 0q-.8 0-1.41-.35-.61-.36-.97-.97-.34-.62-.34-1.42 0-.81.34-1.42.36-.63.97-.97.61-.36 1.41-.36.8 0 1.4.36.62.34.96.97.36.6.36 1.42 0 .8-.35 1.42-.34.61-.96.97-.6.35-1.4.35zm0-.9q.52 0 .91-.23.4-.24.61-.65.23-.42.23-.96t-.23-.96q-.21-.42-.6-.66-.4-.24-.92-.24-.51 0-.9.24-.4.24-.63.66-.23.42-.23.96t.23.96q.23.41.62.65.4.24.91.24zm4.72.86q-.21 0-.36-.14-.14-.15-.14-.37v-4.4q.02-.22.16-.36.14-.14.34-.14.23 0 .37.14.14.14.14.37v1.7h1.91v.2q.55 0 .96.18.43.19.66.52.24.33.24.76 0 .45-.24.8-.23.34-.66.54-.41.2-.96.2zm.5-.94h1.92q.4 0 .65-.19.24-.2.24-.5 0-.33-.24-.54-.25-.2-.65-.2h-1.91zm1.14-1.73v-.53h.94q.25 0 .4-.2.16-.19.16-.49 0-.25-.18-.42-.19-.17-.48-.17h-2.47v-.93h2.47q.47 0 .82.2.37.17.58.5.2.31.2.73 0 .57-.43.94t-1.07.37zm6.14 2.76q-.66 0-1.18-.27-.51-.29-.8-.78-.28-.5-.28-1.13V35.6q.02-.22.15-.36.14-.14.35-.14.23 0 .36.14.14.14.14.37v1.1h1.36q.62 0 1.1.22.48.22.74.63.28.42.28 1.02 0 .64-.29 1.1-.27.45-.78.69-.5.23-1.15.23zm0-.93q.55 0 .9-.27.35-.28.35-.82 0-.52-.32-.77-.33-.25-.83-.25h-1.36v.84q0 .56.35.91.35.36.9.36zm3.58.84q-.21 0-.36-.14-.14-.15-.14-.37v-4.4q0-.22.14-.36.15-.14.36-.14.23 0 .37.14.14.14.14.37V40q0 .21-.14.36-.14.14-.37.14zm4.82.04q-.82 0-1.46-.35-.63-.36-1-.97-.35-.62-.35-1.42 0-.81.33-1.42.35-.63.95-.97.6-.36 1.39-.36.77 0 1.32.35.55.33.84.94.3.59.3 1.37 0 .19-.13.32-.13.12-.33.12h-3.98v-.8h3.95l-.4.28q-.01-.5-.2-.88-.19-.4-.54-.62-.34-.23-.83-.23-.57 0-.97.25t-.6.68q-.21.43-.21.97t.24.97q.25.42.69.67.43.25 1 .25.3 0 .62-.11.32-.12.52-.27.15-.1.32-.1.17-.02.3.1.17.14.18.32 0 .17-.16.3-.33.27-.84.44-.5.17-.95.17zm6.37 2.33q-.17 0-.36-.05-.18-.05-.36-.15-.21-.13-.28-.32-.07-.18.06-.36.11-.17.28-.21.17-.04.36.07.1.06.2.09t.2.03q.31 0 .6-.33.3-.32.58-.97l2.36-5.33q.09-.2.27-.27.18-.07.37.02.17.07.22.26.05.18-.05.38l-2.38 5.34q-.36.8-.91 1.3-.54.5-1.16.5zm2.26-2.6q-.2.09-.36.03-.16-.07-.26-.26l-2.26-4.3q-.1-.18-.03-.35.08-.18.27-.26.19-.08.35 0 .16.05.26.24l2.18 4.26q.1.18.06.38-.03.19-.21.27zm5.53.27q-.8 0-1.41-.36-.62-.37-.97-.98-.35-.62-.35-1.4 0-.8.35-1.42.34-.63.95-.97.6-.36 1.38-.36.58 0 1.07.23.48.22.87.66.13.16.1.33-.05.17-.22.3-.14.1-.31.06-.17-.04-.3-.17-.49-.52-1.21-.52-.5 0-.89.24-.39.23-.6.64-.22.42-.22.98 0 .53.22.95.22.41.62.66.4.24.92.24.34 0 .6-.08.27-.1.48-.27.16-.13.33-.14.17-.02.3.1.17.13.18.3.02.18-.11.31-.71.67-1.78.67zm5.51-5.44q.15 0 .27.08.12.08.18.25l2.04 4.41q.09.2.02.36-.07.15-.24.23-.22.1-.37.05-.16-.05-.27-.25l-1.86-4.22h.5l-1.9 4.22q-.1.19-.28.25-.16.05-.37-.05-.19-.1-.27-.24-.07-.15.03-.35l2.05-4.41q.14-.33.47-.33zm3.65 7.77q-.17 0-.36-.05-.18-.05-.36-.15-.21-.13-.28-.32-.07-.18.06-.36.12-.17.28-.21.17-.04.36.07.1.06.2.09t.2.03q.31 0 .6-.33.3-.32.58-.97l2.36-5.33q.09-.2.27-.27.18-.07.37.02.17.07.22.26.05.18-.05.38l-2.38 5.34q-.36.8-.9 1.3-.55.5-1.17.5zm2.26-2.6q-.2.09-.36.03-.16-.07-.26-.26l-2.26-4.3q-.1-.18-.03-.35.08-.18.27-.26.19-.08.35 0 .16.05.26.24l2.18 4.26q.1.18.06.38-.03.19-.21.27zm4.95.27q-.63 0-1.12-.2-.48-.19-.77-.54-.28-.34-.28-.79 0-.44.25-.76.26-.31.73-.53.48-.22 1.16-.35.67-.13.9-.32.24-.2.24-.5 0-.32-.31-.47-.32-.16-.74-.16-.34 0-.69.11-.33.11-.56.32-.15.14-.33.19-.17.04-.28-.02-.19-.12-.24-.31-.04-.19.09-.35.3-.36.83-.58.54-.23 1.2-.23.55 0 1 .18.46.17.72.5.28.34.28.83 0 .58-.46.97-.47.39-1.42.6-.78.15-1.07.37-.3.2-.29.5.01.31.3.48.28.17.86.17.5 0 .87-.1.36-.11.57-.33.14-.15.31-.2.18-.05.37.11.17.14.17.32t-.15.33q-.33.33-.9.55-.6.2-1.24.2zm5.8 0q-.69 0-1.23-.28-.53-.3-.85-.86-.3-.56-.3-1.38V35.6q0-.22.13-.36.15-.15.37-.15.21 0 .35.15.15.14.15.36v2.43q0 .55.2.92.22.35.57.53.36.17.8.17.43 0 .75-.17.34-.17.54-.46.2-.28.2-.64h.62q0 .61-.31 1.1-.3.5-.82.79-.51.29-1.18.29zm2.18-.04q-.22 0-.37-.14-.14-.15-.14-.37v-4.4q0-.23.14-.37.15-.14.37-.14t.36.14q.14.14.14.37V40q0 .22-.14.37-.14.14-.36.14z" fill="#fff" stroke="#00337c" stroke-width=".1" stroke-linecap="round" paint-order="stroke fill markers"/>
</svg>