<svg width="100" height="100" xmlns="http://www.w3.org/2000/svg">
  <g fill="none" stroke="#00337c">
    <path d="M65.9 81.5H18.2a8.7 8.7 0 0 1-8.6-8.7V32c0-1.4.6-2.6 1.7-3.5l28-18.5a4.3 4.3 0 0 1 5.3 0l28.2 18.5c1 .8 1.7 2.1 1.7 3.5v40.6a8.7 8.7 0 0 1-8.6 8.7z" fill="#abe4fb" fill-opacity=".6" stroke-width="3.671696"/>
    <path d="M52.9 31H31.2" stroke-miterlimit="10" stroke-linecap="round" stroke-width="3.671696"/>
    <path d="m2.3 34.5 37-24.4a4.3 4.3 0 0 1 5.3 0l37.2 24.4" stroke-linecap="round" stroke-linejoin="round" stroke-width="3.671696"/>
    <path d="M74.5 31v41.8a8.7 8.7 0 0 1-8.6 8.6H18.2a8.7 8.7 0 0 1-8.6-8.6V30.9" stroke-width="2.098112" stroke-linecap="round"/>
    <path d="M34.1 45.3H50a3 3 0 0 1 2.9 3v33.2H31.2V48.2a3 3 0 0 1 2.9-2.9z" fill="#fff" stroke-width="3.671696"/>
    <path d="M63.7 12.9V20" stroke-linecap="round" stroke-width="3.671696"/>
  </g>
  <g stroke="#fff" stroke-width=".1">
    <path d="M70.3 69.8 66 65.6 94.7 37a3 3 0 0 1 4.2 0 3 3 0 0 1 0 4.2z" fill="#00337c" stroke="#00337c" stroke-width=".262264"/>
    <path d="M63 92.6a1.9 1.9 0 0 1-.7-.2A29.7 29.7 0 0 1 42.8 67a2 2 0 0 1 2.3-2 20 20 0 0 0 14.3-2l3.3-1.8a2 2 0 0 1 2.1.2l10.8 9.2a2 2 0 0 1 .5 2.2l-1.6 3.4-.7 1.5A52 52 0 0 1 64.4 92a2 2 0 0 1-1.3.6z" fill="#ffd58c" stroke="#00337c" stroke-width=".262264"/>
    <path d="M75.2 74.7 62 61.5l4.2-2.1a4.7 4.7 0 0 1 5.4.9l4.8 4.8a4.7 4.7 0 0 1 1 5.4z" fill="#004cb8" stroke="#00337c" stroke-width=".262264"/>
    <path d="M51.3 85c3.5-2.6 6.6-5.8 9-9.5a37.8 37.8 0 0 1-14 2.9c1.3 2.4 2.9 4.7 4.9 6.7z" fill="#da9462" stroke="none"/>
  </g>
</svg>
